<svg xmlns="http://www.w3.org/2000/svg" width="31" height="31" viewBox="0 0 31 31"
     class="default-transition text-trustBlack dark:text-trustWhite default-transition text-trustBlack dark:text-trustWhite">
    <rect x="0.461" y="0.461" width="30.0779" height="30.0779" rx="4.71921" style="fill:currentcolor"></rect>
    <path style="fill:white" class="default-transition text-trustWhite dark:text-trustBlack"
          d="M22.789 6.686a4.793 4.793 0 0 1-3.77-0.245V5h-3.445v13.672a2.896 2.896 0 0 1-5.201 1.743l-.002-.001.002.001a2.895 2.895 0 0 1 3.183-4.51v-3.5a6.329 6.329 0 0 0-5.394 10.692 6.33 6.33 0 0 0 10.857-4.424V8.687a8.182 8.182 0 0 0 4.773 1.526V6.79a4.831 4.831 0 0 1-1.003-.104z"></path>
</svg>